<svg xmlns="http://www.w3.org/2000/svg" width="100%" height="100%" viewBox="0 0 174 64"><path d="M5 58.5c1.3 0 2.3-0.3 3-0.9 0.7-0.6 1.1-1.3 1.1-2.2 0-0.7-0.2-1.3-0.7-1.8 -0.5-0.5-1.4-1-2.7-1.5 -1.1-0.4-1.8-0.8-2.1-1.2 -0.3-0.3-0.5-0.8-0.5-1.3 0-0.6 0.3-1.1 0.8-1.5 0.5-0.4 1.3-0.6 2.1-0.6 1.1 0 2.1 0.3 3.1 0.9V47.2c-0.8-0.4-1.7-0.6-2.8-0.6 -1.1 0-2.1 0.3-2.9 0.9 -0.8 0.6-1.2 1.3-1.2 2.2 0 0.7 0.2 1.4 0.7 1.9 0.5 0.5 1.3 1 2.5 1.5 1 0.4 1.7 0.8 2.1 1.1 0.4 0.4 0.6 0.8 0.6 1.3 0 1.5-1 2.2-2.9 2.2 -0.4 0-1-0.1-1.6-0.3 -0.6-0.2-1.1-0.5-1.5-0.8V57.7C2.9 58.3 3.8 58.5 5 58.5z" class="a"/><path d="M17.4 57.1c-0.7 0.3-1.3 0.4-1.8 0.4 -0.8 0-1.3-0.2-1.7-0.5 -0.3-0.4-0.5-1-0.5-1.8v-7.7h4v-1h-4v-3c-0.2 0.1-0.3 0.1-0.5 0.2l-0.5 0.2v2.7h-2v1h2v7.9c0 2.1 1 3.1 3.1 3.1 0.6 0 1.2-0.1 1.9-0.4V57.1z" class="a"/><path d="M26.5 52.5v1c0 1.2-0.4 2.1-1.2 2.9 -0.8 0.8-1.8 1.1-3 1.1 -0.9 0-1.6-0.2-2.1-0.6 -0.5-0.4-0.7-0.9-0.7-1.5 0-0.8 0.3-1.3 0.8-1.7 0.5-0.3 1.5-0.6 2.8-0.8L26.5 52.5zM27.5 58.5V50.9c0-1.4-0.3-2.5-1-3.2s-1.7-1.1-2.9-1.1c-0.7 0-1.4 0.1-2.2 0.4 -0.8 0.3-1.4 0.6-1.8 0.9v1.3c1.3-1.1 2.6-1.6 4-1.6 2 0 3 1.3 3 4l-3.8 0.5c-2.8 0.4-4.2 1.6-4.2 3.4 0 0.9 0.3 1.6 1 2.2 0.7 0.6 1.6 0.9 2.8 0.9 0.9 0 1.7-0.2 2.5-0.6 0.7-0.4 1.3-1 1.7-1.8h0.1v2.4H27.5z" class="a"/><path d="M37.4 46.8c-0.4-0.1-0.8-0.2-1.3-0.2 -0.8 0-1.6 0.2-2.2 0.6 -0.7 0.4-1.1 1.1-1.4 2h0v-2.7h-1v12h1v-5.5c0-1.7 0.3-3.1 1.1-4.1 0.7-1 1.5-1.4 2.6-1.4 0.5 0 1 0.1 1.4 0.4V46.8z" class="a"/><path d="M45.4 57.1c-0.7 0.3-1.3 0.4-1.8 0.4 -0.8 0-1.3-0.2-1.7-0.5 -0.3-0.4-0.5-1-0.5-1.8v-7.7h4v-1h-4v-3c-0.2 0.1-0.3 0.1-0.5 0.2l-0.5 0.2v2.7h-2v1h2v7.9c0 2.1 1 3.1 3.1 3.1 0.6 0 1.2-0.1 1.9-0.4V57.1z" class="a"/><path d="M47.7 51.5c0.2-1.3 0.6-2.3 1.4-3 0.7-0.7 1.7-1 2.8-1 1.1 0 1.9 0.4 2.6 1.1 0.6 0.7 1 1.7 1 2.9H47.7zM56.5 52.5v-0.4c0-1.7-0.4-3.1-1.2-4.1 -0.8-1-1.9-1.5-3.4-1.5 -1.6 0-2.9 0.6-3.9 1.7 -1 1.1-1.5 2.6-1.5 4.2 0 1.9 0.5 3.4 1.4 4.5 0.9 1.1 2.1 1.6 3.6 1.6 1.5 0 2.8-0.4 4-1.3v-1.2c-1.2 1-2.5 1.5-3.8 1.5 -1.3 0-2.3-0.4-3.1-1.3 -0.7-0.9-1.1-2.1-1.1-3.7H56.5z" class="a"/><path d="M65.6 46.8c-0.4-0.1-0.8-0.2-1.3-0.2 -0.8 0-1.6 0.2-2.2 0.6 -0.7 0.4-1.1 1.1-1.4 2h0v-2.7h-1v12h1v-5.5c0-1.7 0.3-3.1 1.1-4.1 0.7-1 1.5-1.4 2.6-1.4 0.5 0 1 0.1 1.4 0.4V46.8z" class="a"/><path d="M79.1 40.8c-0.4-0.1-0.8-0.2-1.4-0.2 -1 0-1.9 0.3-2.6 1 -0.7 0.7-1 1.6-1 2.9v2.1h-2v1h2v11h1v-11h4v-1h-4v-2c0-2 0.8-3 2.5-3 0.7 0 1.2 0.1 1.5 0.3V40.8z" class="a"/><path d="M88.6 48.8c0.8 0.9 1.2 2.1 1.2 3.7 0 1.6-0.4 2.8-1.2 3.7 -0.8 0.9-1.9 1.3-3.3 1.3 -1.4 0-2.5-0.4-3.3-1.3 -0.8-0.9-1.2-2.1-1.2-3.6 0-1.6 0.4-2.8 1.2-3.7 0.8-0.9 2-1.3 3.4-1.3C86.7 47.5 87.8 48 88.6 48.8zM89.3 56.9c1-1.1 1.5-2.5 1.5-4.3 0-1.9-0.5-3.3-1.5-4.4 -1-1.1-2.3-1.6-3.9-1.6 -1.7 0-3 0.6-4.1 1.6 -1 1.1-1.5 2.6-1.5 4.5 0 1.8 0.5 3.2 1.5 4.3 1 1.1 2.3 1.6 4 1.6C86.9 58.5 88.3 58 89.3 56.9z" class="a"/><path d="M100.2 46.8c-0.4-0.1-0.8-0.2-1.3-0.2 -0.8 0-1.6 0.2-2.2 0.6 -0.7 0.4-1.1 1.1-1.4 2h-0.1v-2.7h-1v12h1v-5.5c0-1.7 0.4-3.1 1.1-4.1 0.7-1 1.6-1.4 2.6-1.4 0.5 0 1 0.1 1.4 0.4V46.8z" class="a"/><path d="M122.2 60.7L110.9 49.4c1-4.2 4.7-7.3 9.2-7.3 3.1 0 5.9 1.5 7.6 3.9l-1.3 1.2c-1.4-2-3.7-3.3-6.3-3.3 -3.3 0-6.2 2.1-7.2 5.1l9.9 9.9c2.4-0.9 4.2-2.9 4.9-5.4h-4.1v-1.8h4.3 1.7C129.5 56 126.4 59.8 122.2 60.7zM110.7 51.7l9.3 9.3C114.9 60.9 110.7 56.8 110.7 51.7zM120.1 39.5c-6.6 0-12 5.4-12 12s5.4 12 12 12 12-5.4 12-12S126.7 39.5 120.1 39.5z" class="a"/><path d="M19.3 4c-0.4-0.2-0.9-0.4-1.4-0.6 -0.5-0.2-1.1-0.4-1.7-0.5 -0.6-0.2-1.2-0.3-1.9-0.4 -0.6-0.1-1.3-0.1-2-0.1 -1.7 0-3.1 0.2-4.3 0.7 -1.2 0.5-2.2 1-3 1.7C4.3 5.6 3.7 6.4 3.4 7.3 3 8.2 2.8 9.2 2.8 10.1c0 0.8 0.1 1.6 0.4 2.3 0.2 0.7 0.6 1.3 1 1.9 0.4 0.6 0.9 1.1 1.5 1.5 0.6 0.5 1.2 0.9 2 1.3 0.7 0.4 1.2 0.7 1.7 1 0.5 0.3 0.8 0.6 1.1 0.9 0.3 0.3 0.5 0.6 0.6 0.9 0.1 0.3 0.2 0.6 0.2 1 0 0.3-0.1 0.6-0.2 0.9 -0.1 0.3-0.3 0.5-0.6 0.7 -0.3 0.2-0.7 0.4-1.1 0.5 -0.5 0.1-1 0.2-1.7 0.2 -0.6 0-1.2-0.1-1.8-0.2 -0.6-0.1-1.2-0.3-1.7-0.5 -0.6-0.2-1.1-0.5-1.6-0.8 -0.5-0.3-1-0.6-1.4-0.9L0 26c0.4 0.3 0.9 0.5 1.5 0.7 0.5 0.2 1.1 0.4 1.8 0.6 0.6 0.2 1.3 0.3 2 0.4 0.7 0.1 1.5 0.2 2.2 0.2 1.3 0 2.5-0.1 3.5-0.4 1-0.2 1.9-0.6 2.6-1 0.7-0.4 1.3-0.9 1.8-1.4 0.5-0.5 0.8-1.1 1.1-1.6 0.3-0.6 0.5-1.1 0.6-1.7 0.1-0.6 0.2-1.1 0.2-1.5 0-0.8-0.1-1.5-0.3-2.2 -0.2-0.6-0.5-1.2-1-1.8 -0.4-0.5-1-1.1-1.6-1.6 -0.6-0.5-1.3-1-2.1-1.5 -0.6-0.4-1.1-0.7-1.6-1 -0.4-0.3-0.8-0.6-1-0.9 -0.3-0.3-0.5-0.6-0.6-0.9 -0.1-0.3-0.2-0.7-0.2-1C8.8 9.2 8.9 9 9 8.8c0.1-0.2 0.3-0.5 0.6-0.7 0.3-0.2 0.6-0.4 1.1-0.5 0.5-0.1 1-0.2 1.7-0.2 0.6 0 1.2 0.1 1.7 0.2 0.5 0.2 1.1 0.3 1.6 0.6 0.5 0.2 1 0.5 1.4 0.8 0.4 0.3 0.8 0.6 1.2 0.9L19.3 4z" class="a"/><path d="M32.5 9.7h-4.3l1.2-6.1 -5.9 1.5 -0.9 4.5h-2.6l-1 3.7h2.8l-1.4 7.1c0 0.2-0.1 0.5-0.1 0.7 -0.1 0.3-0.1 0.5-0.1 0.8 0 0.3-0.1 0.5-0.1 0.8 0 0.2 0 0.5 0 0.6 0 0.7 0.1 1.3 0.2 1.8 0.2 0.6 0.4 1 0.8 1.4 0.4 0.4 0.9 0.7 1.5 1 0.6 0.2 1.3 0.3 2.2 0.3 0.4 0 0.8 0 1.1-0.1 0.4 0 0.8-0.1 1.2-0.1 0.4-0.1 0.7-0.1 1-0.2 0.3-0.1 0.6-0.1 0.8-0.2L29.4 24c-0.1 0-0.3 0.1-0.5 0.1l-0.7 0.1c-0.2 0-0.4 0.1-0.6 0.1 -0.2 0-0.4 0-0.5 0 -0.5 0-0.9-0.1-1.2-0.4 -0.2-0.2-0.3-0.6-0.3-1.1 0-0.1 0-0.2 0-0.4s0-0.4 0.1-0.5l0.1-0.6c0-0.2 0.1-0.4 0.1-0.5l1.4-7.3h4.2L32.5 9.7z" class="a"/><path d="M52.5 9.7h-5.8l-5.5 11.1c-0.2 0.5-0.4 0.9-0.6 1.3 -0.2 0.5-0.3 0.8-0.4 1.1h-0.1c0-0.3 0-0.7 0-1.1 0-0.4 0-0.9-0.1-1.3L38.8 9.7H32.9l3.5 18.1 -1.4 2.6c-0.4 0.8-1 1.4-1.6 1.8 -0.6 0.4-1.2 0.5-1.9 0.5 -0.4 0-0.7-0.1-1.1-0.1 -0.3-0.1-0.6-0.2-0.9-0.4l-1 3.8c0.5 0.2 1 0.3 1.6 0.3 0.6 0.1 1.1 0.1 1.4 0.1 1.2 0 2.2-0.2 3.1-0.5 0.9-0.3 1.8-0.8 2.5-1.4 0.8-0.6 1.5-1.3 2.1-2.2 0.6-0.9 1.3-1.8 1.9-2.9L52.5 9.7z" class="a"/><path d="M59.7 25.8l0.4-1.8c-0.3 0.1-0.5 0.2-0.8 0.3 -0.3 0.1-0.6 0.1-0.9 0.1 -0.4 0-0.7-0.1-1-0.3 -0.3-0.2-0.4-0.5-0.4-1 0-0.4 0-0.9 0.2-1.4 0.1-0.5 0.2-1 0.3-1.5l4-20.1H55.8c0 0.2-0.1 0.6-0.2 1.2 -0.1 0.6-0.3 1.4-0.5 2.3l-0.6 3c-0.2 1.1-0.4 2.2-0.7 3.4 -0.2 1.1-0.5 2.3-0.7 3.4 -0.2 1.1-0.4 2.1-0.6 3 -0.2 0.9-0.3 1.7-0.5 2.3l-0.2 1.1c-0.1 0.3-0.1 0.7-0.2 1.1 -0.1 0.4-0.1 0.7-0.2 1.1l-0.1 1c0 0.3 0 0.6 0 0.9 0 0.7 0.1 1.2 0.3 1.8 0.2 0.5 0.4 1 0.8 1.4 0.4 0.4 0.8 0.7 1.4 0.9 0.6 0.2 1.2 0.3 2 0.3 0.3 0 0.7 0 1 0 0.3 0 0.7 0 1-0.1 0.3 0 0.6-0.1 0.9-0.1 0.3 0 0.5-0.1 0.7-0.2C59.4 26.9 59.6 26.4 59.7 25.8z" class="a"/><path d="M72.8 16.4c-1 0.4-2.6 0.6-4.7 0.6 0.2-0.5 0.4-1 0.6-1.4 0.3-0.4 0.6-0.8 1-1.2 0.4-0.3 0.8-0.6 1.3-0.8 0.5-0.2 1-0.3 1.5-0.3 0.6 0 1 0.1 1.4 0.4 0.3 0.2 0.5 0.5 0.5 0.9C74.4 15.4 73.8 16 72.8 16.4zM79.3 12.8c-0.2-0.6-0.6-1.1-1.1-1.6 -0.5-0.4-1.2-0.8-2-1.1 -0.8-0.3-1.9-0.4-3-0.4 -1.6 0-3.1 0.3-4.5 0.9 -1.3 0.6-2.5 1.4-3.4 2.4 -0.9 1-1.7 2.2-2.2 3.5 -0.5 1.3-0.8 2.7-0.8 4.2 0 1 0.1 1.9 0.4 2.8 0.3 0.9 0.8 1.6 1.4 2.3 0.6 0.7 1.4 1.2 2.4 1.6s2.1 0.6 3.5 0.6c0.6 0 1.3 0 1.9-0.1 0.6-0.1 1.2-0.2 1.8-0.3 0.5-0.1 1.1-0.3 1.5-0.4 0.5-0.2 0.9-0.3 1.3-0.5l0.9-3.8c-0.5 0.2-0.9 0.4-1.4 0.6 -0.5 0.2-1 0.4-1.5 0.5 -0.5 0.1-1 0.2-1.5 0.3 -0.5 0.1-0.9 0.1-1.4 0.1 -0.7 0-1.3-0.1-1.8-0.3 -0.5-0.2-0.8-0.5-1.1-0.8 -0.3-0.3-0.5-0.7-0.6-1.1 -0.1-0.4-0.2-0.8-0.2-1.2v-0.2c0-0.1 0-0.1 0-0.2 2.3 0 4.2-0.2 5.7-0.5 1.5-0.3 2.7-0.7 3.7-1.3 0.9-0.5 1.6-1.2 2-1.9 0.4-0.7 0.6-1.5 0.6-2.4C79.7 13.9 79.5 13.3 79.3 12.8z" class="a"/><path d="M94.3 13.6l-0.9 4.1c-0.2 0.8-0.4 1.6-0.7 2.4 -0.3 0.8-0.6 1.5-1 2.1 -0.4 0.6-0.8 1.2-1.3 1.5 -0.5 0.4-1.1 0.6-1.7 0.6 -0.4 0-0.7-0.1-1-0.2 -0.3-0.1-0.5-0.4-0.7-0.6 -0.2-0.3-0.3-0.6-0.4-1 -0.1-0.4-0.1-0.8-0.1-1.2 0-0.4 0-0.9 0.1-1.4 0.1-0.5 0.2-1.1 0.4-1.7 0.2-0.6 0.4-1.2 0.7-1.7 0.3-0.6 0.7-1.1 1.1-1.5 0.5-0.5 1-0.8 1.6-1.1 0.6-0.3 1.3-0.4 2.1-0.4 0.3 0 0.6 0 0.9 0.1C93.7 13.5 94 13.5 94.3 13.6zM102.4 0h-5.5l-1.8 10C94.8 9.9 94.4 9.8 93.9 9.8c-0.5 0-1-0.1-1.4-0.1 -1.8 0-3.5 0.3-4.9 1 -1.4 0.7-2.7 1.5-3.7 2.6 -1 1.1-1.8 2.3-2.3 3.7 -0.5 1.4-0.8 2.9-0.8 4.4 0 1.1 0.1 2 0.4 2.8 0.3 0.8 0.6 1.5 1.1 2.1 0.5 0.6 1.1 1 1.7 1.3 0.7 0.3 1.5 0.4 2.3 0.4 0.6 0 1.2 0 1.8 0 0.5 0 1-0.2 1.5-0.5 0.5-0.3 0.9-0.7 1.3-1.1 0.4-0.4 0.8-0.9 1.1-1.4H92l-0.1 0.7c0 0.3 0 0.6-0.1 0.9 0 0.3-0.1 0.6-0.1 0.9 0 0.3 0 0.5 0 0.7h5.6c0-0.4 0-0.9 0.1-1.4 0-0.5 0.1-1.1 0.2-1.7 0.1-0.6 0.1-1.2 0.2-1.7 0.1-0.5 0.1-1 0.3-1.4L102.4 0z" class="a"/><path d="M115.9 21c-0.2 0.4-0.5 0.8-0.9 1.1 -0.4 0.3-0.9 0.6-1.5 0.7 -0.6 0.2-1.4 0.3-2.2 0.3h-3.1l1.4-6.1h3c1.2 0 2.1 0.3 2.7 0.7 0.6 0.5 0.9 1.1 0.9 1.9C116.2 20.2 116.1 20.6 115.9 21zM117.1 10.6c-0.2 0.3-0.5 0.6-0.9 0.9 -0.4 0.3-0.8 0.4-1.4 0.6 -0.5 0.1-1.1 0.2-1.8 0.2h-2.7l1.3-4.9h2.3c0.6 0 1.1 0.1 1.6 0.2 0.4 0.1 0.8 0.3 1.1 0.4 0.3 0.2 0.5 0.4 0.6 0.7 0.1 0.3 0.2 0.6 0.2 0.9C117.4 9.8 117.3 10.2 117.1 10.6zM123 5.8c-0.3-0.7-0.7-1.3-1.3-1.8 -0.6-0.5-1.4-0.9-2.4-1.2 -1-0.3-2.1-0.4-3.5-0.4h-8.9l-5.4 25.5h10c1.8 0 3.3-0.2 4.7-0.6 1.3-0.4 2.4-1 3.3-1.7 0.9-0.7 1.5-1.6 2-2.6 0.4-1 0.7-2.1 0.7-3.3 0-0.7-0.1-1.3-0.3-1.9 -0.2-0.6-0.5-1.1-0.9-1.6 -0.4-0.5-0.9-0.9-1.5-1.2 -0.6-0.3-1.3-0.5-2.1-0.7v-0.1c1-0.2 1.9-0.5 2.6-0.8s1.4-0.8 1.9-1.4c0.5-0.5 0.9-1.1 1.2-1.8 0.3-0.7 0.4-1.4 0.4-2.2C123.4 7.3 123.3 6.5 123 5.8z" class="a"/><path d="M132.6 25.8l0.4-1.8c-0.3 0.1-0.5 0.2-0.8 0.3 -0.3 0.1-0.6 0.1-0.9 0.1 -0.4 0-0.7-0.1-1-0.3 -0.3-0.2-0.4-0.5-0.4-1 0-0.4 0-0.9 0.2-1.4 0.1-0.5 0.2-1 0.3-1.5l4-20.1h-5.6c0 0.2-0.1 0.6-0.2 1.2 -0.1 0.6-0.3 1.4-0.5 2.3l-0.6 3c-0.2 1.1-0.4 2.2-0.7 3.4 -0.2 1.1-0.5 2.3-0.7 3.4s-0.4 2.1-0.6 3c-0.2 0.9-0.4 1.7-0.5 2.3l-0.2 1.1c-0.1 0.3-0.1 0.7-0.2 1.1 -0.1 0.4-0.1 0.7-0.2 1.1l-0.1 1c0 0.3 0 0.6 0 0.9 0 0.7 0.1 1.2 0.2 1.8 0.2 0.5 0.4 1 0.8 1.4 0.4 0.4 0.8 0.7 1.4 0.9 0.6 0.2 1.2 0.3 2 0.3 0.3 0 0.7 0 1 0 0.3 0 0.7 0 1-0.1 0.3 0 0.6-0.1 0.9-0.1 0.3 0 0.5-0.1 0.7-0.2C132.3 26.9 132.4 26.4 132.6 25.8z" class="a"/><path d="M147.8 19.6c-0.2 0.9-0.5 1.7-0.9 2.4 -0.4 0.7-0.9 1.3-1.5 1.7 -0.6 0.4-1.3 0.6-2 0.6 -0.8 0-1.5-0.3-1.9-0.9 -0.5-0.6-0.8-1.5-0.8-2.6 0-0.9 0.1-1.8 0.3-2.6 0.2-0.9 0.5-1.6 0.9-2.4 0.4-0.7 0.9-1.3 1.5-1.7 0.6-0.4 1.2-0.7 2-0.7 0.4 0 0.8 0.1 1.1 0.3 0.3 0.2 0.6 0.4 0.9 0.7 0.2 0.3 0.4 0.7 0.5 1.1 0.1 0.4 0.2 0.9 0.2 1.4C148.1 17.9 148 18.7 147.8 19.6zM153.2 14c-0.3-0.9-0.8-1.6-1.5-2.3 -0.7-0.6-1.5-1.1-2.5-1.5 -1-0.3-2.1-0.5-3.3-0.5 -1.3 0-2.4 0.2-3.5 0.5 -1 0.3-1.9 0.7-2.7 1.3 -0.8 0.5-1.5 1.1-2.1 1.8 -0.6 0.7-1 1.5-1.4 2.3 -0.4 0.8-0.6 1.6-0.8 2.5 -0.2 0.9-0.3 1.7-0.3 2.5 0 1.1 0.2 2 0.5 2.9 0.3 0.9 0.8 1.7 1.4 2.3 0.6 0.7 1.5 1.2 2.5 1.6 1 0.4 2.1 0.6 3.5 0.6 1.3 0 2.5-0.1 3.5-0.5 1-0.3 2-0.7 2.7-1.3 0.8-0.5 1.5-1.2 2-1.9 0.6-0.7 1-1.5 1.4-2.3 0.3-0.8 0.6-1.6 0.8-2.5 0.2-0.8 0.2-1.7 0.2-2.5C153.7 15.9 153.5 14.9 153.2 14z" class="a"/><path d="M168.4 13.5l-0.9 4.4c-0.1 0.5-0.2 0.9-0.4 1.4 -0.1 0.5-0.3 1-0.5 1.5 -0.2 0.5-0.4 0.9-0.7 1.4 -0.3 0.4-0.5 0.8-0.9 1.1 -0.3 0.3-0.7 0.6-1.1 0.8 -0.4 0.2-0.8 0.3-1.3 0.3 -0.4 0-0.7-0.1-1-0.2 -0.3-0.1-0.5-0.4-0.7-0.6 -0.2-0.3-0.3-0.6-0.4-1 -0.1-0.4-0.1-0.8-0.1-1.2 0-1.1 0.2-2.1 0.5-3.1 0.3-0.9 0.7-1.8 1.3-2.5 0.5-0.7 1.2-1.3 1.9-1.7 0.7-0.4 1.5-0.6 2.3-0.6 0.4 0 0.8 0 1.1 0.1C167.8 13.5 168.1 13.5 168.4 13.5zM174.6 10.6l-1.7-0.3c-0.6-0.1-1.3-0.2-2-0.3 -0.7-0.1-1.4-0.1-2.1-0.2 -0.7 0-1.5-0.1-2.2-0.1 -1.3 0-2.5 0.2-3.6 0.5 -1.1 0.3-2.1 0.7-2.9 1.3 -0.9 0.5-1.6 1.2-2.3 1.9 -0.7 0.7-1.2 1.5-1.6 2.4 -0.4 0.9-0.8 1.8-1 2.7 -0.2 1-0.3 1.9-0.3 2.9 0 1 0.1 1.9 0.4 2.7 0.2 0.8 0.6 1.5 1.1 2.1 0.4 0.6 1 1 1.7 1.4 0.7 0.3 1.5 0.5 2.4 0.5 0.7 0 1.3-0.1 1.8-0.3 0.5-0.2 1-0.4 1.5-0.7 0.5-0.3 0.9-0.6 1.2-1.1 0.4-0.4 0.7-0.8 1-1.3h0.1l-0.3 1.6c-0.2 0.9-0.5 1.8-0.8 2.7 -0.3 0.8-0.7 1.6-1.2 2.2 -0.5 0.6-1.1 1-1.8 1.4 -0.7 0.3-1.5 0.4-2.4 0.4 -1 0-1.9-0.3-2.8-0.8 -0.9-0.5-1.7-1.2-2.4-2l-1 4.9c0.8 0.4 1.7 0.8 2.7 1.1 1 0.3 2 0.4 3.2 0.4 2.1 0 3.8-0.3 5.2-0.8 1.4-0.5 2.6-1.3 3.6-2.2 0.9-0.9 1.7-2 2.2-3.3 0.6-1.3 1-2.7 1.3-4.3L174.6 10.6z" class="a"/></svg>