<svg version="1.2" baseProfile="tiny" xmlns="http://www.w3.org/2000/svg"  viewBox="0 0 175 64">
<g fill-rule="evenodd" fill="#563E57"><path d="M19.3 4L18 3.4c-.7 0-1.2-.3-1.8-.5l-2-.4-2-.2c-1.5 0-3 .3-4.2.7-1.2.6-2.2 1-3 1.8-.7.8-1.3 1.6-1.6 2.5-.4 1-.6 2-.6 2.8 0 1 0 1.7.4 2.4.2.7.5 1.3 1 1.8.3.6 1 1 1.5 1.6l2 1.2 1.6 1 1 1c.4.2.6.5.7.8l.2 1c0 .3 0 .7-.2 1 0 .2-.3.4-.6.6l-1.2.5H5.7L4 22.3l-1.6-.8-1.4-1L0 26c.4.3 1 .5 1.5.7.5.3 1 .5 1.8.7l2 .4 2.2.2c1.3 0 2.5-.2 3.5-.4 1-.3 2-.6 2.6-1 .7-.4 1.3-.8 1.8-1.4.4-.5.8-1 1-1.6l.7-1.7c.2-.7.2-1.2.2-1.7 0-.8 0-1.5-.3-2.2l-1-1.7-1.7-1.5-2-1.5-1.7-1-1-1c-.3-.2-.5-.5-.6-.8l-.2-1c0-.3 0-.5.2-.8 0-.2.3-.4.6-.6l1-.5 1.8-.2c.6 0 1 0 1.7.2.6.2 1.2.3 1.7.6L17 9c.5.3 1 .6 1.3 1l1-5.8zm13.2 5.7h-4.3l1.2-6-6 1.5-.8 4.5H20l-1 3.7h2.7l-1.4 7c0 .3 0 .5-.2.8v1.5c-.2.3-.2.5-.2.7 0 .6 0 1.3.3 1.8.2.6.5 1 .8 1.4.4.5 1 .8 1.5 1 .6.2 1.3.3 2.2.3h1l1.3-.2c.3 0 .7 0 1-.2l.8-.2.8-3.4H29l-.8.2H27c-.5 0-1 0-1-.3-.4-.3-.5-.7-.5-1.2v-.4-.6l.2-.6v-.5l1.6-7.3h4.2l1-3.7zm19 0h-5.8l-5.6 11c0 .6-.3 1-.5 1.4 0 .6-.3 1-.4 1.2v-1-1.4l-1.2-11h-6l3.6 18-1.4 2.6c-.5 1-1 1.5-1.6 2-.6.2-1.2.4-2 .4h-1l-1-.5-1 3.7 1.7.4h1.5c1 0 2.2 0 3-.4 1-.4 1.8-.8 2.6-1.4.8-.6 1.5-1.4 2.2-2.2l1.8-2.8 11.5-20zm7.2 16L59 24s-.4 0-.7.2h-1c-.3 0-.6 0-1-.2-.2-.2-.3-.5-.3-1v-1.4c.3-.5.3-1 .4-1.5l4-20h-5.6l-.2 1.2-.5 2.2-.5 3-.7 3.4-.7 3.4-.5 3-.5 2.2-.2 1.2-.2 1-.2 1V23c-.2.3-.2.6-.2.8 0 .7 0 1.3.3 1.8.2.5.4 1 .8 1.3.3.4.8.7 1.4 1 .5.2 1.2.3 2 .3h1c.3 0 .6 0 1-.2h.8l.8-.3c0-.6.3-1 .4-1.7zm19.6-13c-.3-.5-.6-1-1.2-1.5-.4-.5-1-.8-2-1-.8-.3-1.8-.5-3-.5-1.6 0-3 .3-4.4 1-1.3.5-2.5 1.3-3.4 2.3-1 1-1.7 2.2-2.2 3.5-.5 1.4-.8 2.8-.8 4.2 0 1 0 2 .4 3 .3.7.8 1.5 1.4 2 .7.8 1.5 1.3 2.4 1.7s2.2.6 3.6.6c.6 0 1.2 0 1.8-.2.7 0 1.2 0 1.8-.3.5 0 1-.2 1.5-.4.6 0 1-.2 1.4-.4l.8-3.8-1.4.6-1.5.5c-.6 0-1 0-1.6.2h-1.3c-.7 0-1.3 0-1.8-.2s-.8-.4-1-.7c-.4-.3-.6-.7-.7-1-.3-.5-.3-1-.3-1.3v-.3c2.3 0 4.2-.2 5.7-.5 1.5-.4 2.8-.8 3.7-1.3 1-.6 1.7-1.3 2-2 .4-.8.7-1.6.7-2.4 0-.7-.2-1.3-.4-1.8zm-6.5 3.7c-1 .4-2.6.7-4.7.6l.7-1.4c.3-.5.6-1 1-1.2l1.3-.8 1.5-.2c.6 0 1 0 1.4.3.2.3.4.6.4 1 0 .7-.6 1.3-1.6 1.7zM101.4 0H96l-2 10-1-.2h-1.5c-2 0-3.5.2-5 1-1.4.5-2.7 1.3-3.7 2.4-1 1-1.7 2.3-2.3 3.7-.5 1.3-.8 2.8-.8 4.3 0 1 0 2 .4 2.8.4 1 .7 1.7 1.2 2.2.5.6 1 1 1.8 1.3.6.3 1.4.4 2.3.4H87c.6 0 1-.3 1.5-.6l1.3-1c.4-.5.8-1 1-1.5h.2v.6c0 .2 0 .5-.2.8V28h5.6v-1.5c0-.5 0-1 .2-1.7l.2-1.7.3-1.3L101.5 0zm-8 13.6l-1 4-.7 2.5c-.3 1-.6 1.6-1 2.2-.4.6-1 1.2-1.4 1.5-.5.4-1 .6-1.7.6-.4 0-.7 0-1-.2-.3 0-.5-.3-.7-.6-.3-.2-.4-.6-.5-1l-.2-1.2c0-.4 0-1 .2-1.4 0-.5.2-1 .4-1.7 0-.4.3-1 .6-1.6l1-1.5c.6-.6 1-1 1.7-1.2.6-.3 1.3-.4 2.2-.4h1c.2 0 .5 0 .8.2zM122 5.8c-.3-.6-.7-1.3-1.3-1.7-.6-.5-1.4-1-2.4-1-1-.4-2-.6-3.5-.6h-9L100.5 28h10c1.8 0 3.3-.3 4.7-.7 1.3-.4 2.4-1 3.3-1.7 1-.7 1.5-1.6 2-2.6s.7-2 .7-3.3c0-.7 0-1.3-.3-2l-1-1.5c-.4-.5-1-1-1.5-1.2-.6-.3-1.3-.6-2-.7 1-.2 1.7-.5 2.5-1s1.4-.7 2-1.3c.4-.5.8-1 1-1.8.3-.7.4-1.4.4-2.2 0-.8 0-1.5-.4-2.2zm-6 4.8c0 .3-.4.6-.7.8-.4.3-1 .4-1.4.6l-2 .2h-2.6l1.3-5h2.3c.6 0 1.2 0 1.6.2l1 .5c.3 0 .5.3.6.5.2.3.2.6.2 1 0 .3 0 .7-.3 1zM115 21c-.3.4-.6.8-1 1-.4.4-1 .7-1.5.8-.7.2-1.4.3-2.3.3h-3l1.3-6h3c1.2 0 2 .3 2.7.7.6.5 1 1.2 1 2 0 .5 0 1-.3 1.3zm16.6 4.8l.4-2c-.2.3-.5.3-.8.4h-1c-.3 0-.6 0-1-.2-.2-.2-.3-.5-.3-1v-1.4l.3-1.5 4-20h-5.6s0 .6-.3 1.2c0 .6-.2 1.3-.4 2.2l-.6 3-.7 3.4-.7 3.4-.6 3-.5 2.2-.4 1.2c0 .3 0 .7-.2 1v1L123 23v.8c0 .7 0 1.3.2 1.8 0 .5.4 1 .8 1.3.3.4.8.7 1.3 1 .6.2 1.3.3 2 .3h1c.4 0 .7 0 1-.2h1c.2-.2.4-.2.7-.3 0-.6.2-1 .4-1.7zM152.2 14c-.4-1-1-1.6-1.5-2.3-.7-.6-1.5-1-2.5-1.5-1-.3-2-.5-3.3-.5-1.4 0-2.6.2-3.6.5s-2 .7-2.7 1.2c-.8.6-1.5 1.2-2 2-.7.6-1.2 1.3-1.5 2-.4 1-.7 1.8-.8 2.7l-.3 2.6c0 1 .2 2 .6 3 .3.8.8 1.6 1.4 2.2.7.7 1.5 1.2 2.5 1.6 1 .4 2 .5 3.5.5 1.3 0 2.5-.2 3.5-.5s2-.8 2.8-1.3c.8-.5 1.4-1.2 2-2 .6-.6 1-1.4 1.4-2.2.3-.8.6-1.6.7-2.5.2-.8.3-1.7.3-2.5 0-1-.2-2-.5-3zm-5.4 5.6c-.2 1-.5 1.7-1 2.4-.3.7-.8 1.2-1.4 1.7-.6.4-1.2.6-2 .6s-1.5-.3-2-1c-.4-.5-.7-1.4-.7-2.5 0-1 0-1.8.3-2.7.2-.7.5-1.5 1-2.2.3-.7.8-1.3 1.4-1.8.6-.4 1.3-.6 2-.6.4 0 .8 0 1 .2.5.2.8.5 1 .8l.5 1V17c0 1 0 1.7-.2 2.6zm26.8-9l-1.7-.3c-.7 0-1.4-.2-2-.3-.8 0-1.5 0-2.2-.2h-2.2c-1.3 0-2.5 0-3.6.4-1 .3-2 .7-3 1.3-.8.5-1.6 1-2.2 1.8-.7.8-1.2 1.6-1.7 2.5l-.8 2.7c-.3 1-.4 2-.4 3s0 1.8.4 2.6c.2 1 .6 1.6 1 2 .5.7 1 1 1.8 1.5.6.3 1.4.5 2.4.5.6 0 1.2 0 1.8-.3.5-.2 1-.4 1.4-.8.5-.4 1-.7 1.2-1l1-1.4-.2 1.6c-.2 1-.5 1.8-.8 2.6-.3 1-.7 1.6-1.2 2.2-.5.6-1 1-1.8 1.4-.7.3-1.5.4-2.4.4-1 0-2-.2-2.8-.7-1-.5-1.7-1-2.4-2l-1 5c.8.4 1.7.8 2.7 1 .8.3 2 .5 3 .5 2 0 3.8-.3 5.2-.8 1.5-.5 2.7-1.3 3.6-2.2 1-1 1.7-2 2.2-3.3.6-1.3 1-2.7 1.4-4.3l3.2-15.4zm-6.2 3l-1 4.3-.3 1.3c0 .5-.3 1-.4 1.4L165 22c-.4.5-.7 1-1 1.2-.3.4-.7.6-1 .8l-1.3.3c-.4 0-.8 0-1-.2-.3 0-.5-.3-.7-.6-.2-.2-.4-.6-.4-1l-.2-1.2c0-1 .2-2 .5-3 .2-1 .6-1.8 1-2.5.7-.8 1.3-1.3 2-1.7.7-.4 1.5-.6 2.3-.6h2zM119.2 60.7L108 49.4c1-4.2 4.6-7.3 9-7.3 3.2 0 6 1.6 7.7 4l-1.3 1c-1.4-2-3.7-3.2-6.3-3.2-3.2 0-6 2-7 5l9.7 10c2.4-1 4.2-3 5-5.4h-4.2v-2h6c0 4.6-3 8.4-7.3 9.3zm-11.5-9L117 61c-5 0-9.3-4.2-9.3-9.3zm9.4-12.2c-6.5 0-12 5.4-12 12s5.5 12 12 12 12-5.3 12-12-5.3-12-12-12zm-17.8 7.3c-.4-.2-.8-.3-1.3-.3-1 0-1.7.3-2.3.7-.7.4-1.2 1-1.5 2v-2.7h-1v12h1V53c0-1.7.3-3 1-4s1.6-1.5 2.6-1.5c.5 0 1 .2 1.4.4v-1.3zm-11.6 2c.7 1 1 2 1 3.7 0 1.6-.3 2.8-1 3.7-.8 1-2 1.3-3.3 1.3-1.4 0-2.5-.4-3.4-1.3-1-1-1.3-2-1.3-3.6S80 49.8 81 49c.8-1 2-1.5 3.3-1.5 1.4 0 2.5.5 3.3 1.3zm.7 8c1-1 1.4-2.5 1.4-4.3 0-1.8-.5-3.3-1.4-4.4-1-1-2.3-1.5-4-1.5-1.6 0-3 .6-4 1.6-1 1.2-1.6 2.7-1.6 4.6 0 1.8.5 3.2 1.5 4.3 1 1 2.3 1.5 4 1.5 1.7 0 3-.5 4-1.6zM78 41c-.3-.2-.7-.3-1.3-.3-1 0-2 .4-2.6 1-.5.7-1 1.7-1 3v2h-2v1h2v11h1v-11h4v-1h-4v-2c0-2 1-3 2.6-3 .7 0 1.2.2 1.5.4v-1.3zm-13.4 6c-.4-.2-.8-.3-1.3-.3-.8 0-1.6.3-2.2.7-.6.4-1 1-1.3 2v-2.7h-1v12h1V53c0-1.7.3-3 1-4 .6-1 1.5-1.5 2.5-1.5.6 0 1 .2 1.4.4v-1.3zm-18 4.7c.3-1.2.7-2.2 1.5-3 .8-.6 1.8-1 3-1 1 0 1.8.4 2.4 1 .6.8 1 1.8 1 3h-7.7zm9 1V52c0-1.6-.5-3-1.3-4s-2-1.5-3.4-1.5c-1.7 0-3 .6-4 1.8-1 1-1.5 2.5-1.5 4.2 0 2 .4 3.4 1.4 4.4.8 1 2 1.5 3.5 1.5 1.4 0 2.8-.4 4-1.3V56c-1.3 1-2.5 1.5-3.8 1.5-1.4 0-2.4-.4-3-1.3-1-1-1.2-2-1.2-3.7h9zM44.3 57c-.7.4-1.3.5-2 .5-.6 0-1.2 0-1.5-.5-.5-.4-.6-1-.6-1.8v-7.7h4v-1h-4v-3c-.2 0-.4 0-.5.2h-.6v2.8h-2v1h2v8c0 2 1 3 3 3 .7 0 1.3 0 2-.4v-1zm-8-10.3l-1.3-.2c-.7 0-1.5.3-2 .7-.8.4-1.3 1-1.6 2v-2.7h-1v12h1V53c0-1.7.3-3 1-4s1.6-1.5 2.6-1.5c.6 0 1 .2 1.4.4v-1.3zm-11 5.8v1c0 1.2-.3 2.2-1 3-1 .7-2 1-3 1s-1.6-.2-2-.6c-.6-.5-1-1-1-1.6 0-.8.4-1.3 1-1.7.5-.3 1.4-.6 2.7-.8l3.5-.5zm1 6V51c0-1.5-.2-2.6-1-3.4s-1.6-1-2.8-1c-.7 0-1.4 0-2.2.3-.8 0-1.4.5-2 .8V49c1.4-1 2.7-1.5 4-1.5 2 0 3 1.4 3 4L22 52c-3 .4-4.3 1.6-4.3 3.5 0 1 .4 1.6 1 2.2.7.5 1.6.8 2.8.8 1 0 1.7-.2 2.5-.6.7-.4 1.3-1 1.7-2v2.5h1zm-10-1.4c-.6.4-1.3.5-1.8.5-.8 0-1.4 0-1.7-.5-.4-.4-.6-1-.6-1.8v-7.7h4v-1h-4v-3c-.2 0-.3 0-.5.2h-.6v2.8h-2v1h2v8c0 2 1 3 3 3 .7 0 1.3 0 2-.4v-1zM4 58.6c1.3 0 2.3-.2 3-.8.7-.6 1-1.4 1-2.3 0-.8-.2-1.3-.6-1.8C7 53 6 52.6 4.7 52c-1-.3-1.8-.7-2-1-.5-.4-.6-.8-.6-1.4 0-.6.4-1 1-1.5.4-.3 1-.5 2-.5s2 .3 3 1V47c-.7-.5-1.6-.7-2.7-.7-1.2 0-2.2.3-3 1-.8.5-1.2 1.2-1.2 2 0 1 .4 1.5 1 2 .3.5 1.2 1 2.4 1.4 1 .3 1.6.7 2 1 .5.4.7.8.7 1.3 0 1.5-1 2.2-2.8 2.2-.5 0-1 0-1.6-.3-.6-.2-1-.5-1.5-.8v1.3c1 .6 1.8.8 3 .8z"/></g></svg>