<svg version="1.2" baseProfile="tiny" xmlns="http://www.w3.org/2000/svg"  viewBox="0 0 318 30">
  <g fill-rule="evenodd" fill="#7F5D80">
    <path d="M307 24l-12.4-12.3c1-4.5 5-8 10-8 3.4 0 6.4 1.7 8.2 4.3l-1.4 1.2c-1.5-2-4-3.5-6.8-3.5-3.6 0-6.7 2.3-8 5.5l10.8 10.6c2.6-1 4.6-3 5.3-5.8h-4.4v-2H314.6c0 5-3.4 9-8 10zm-12.6-10l10 10.2c-5.5 0-10-4.5-10-10zm10.2-13c-7.2 0-13 5.8-13 13s5.8 13 13 13 13-5.8 13-13-5.8-13-13-13zM159 23c1.4 0 2.5-.4 3.3-1s1.3-1.8 1.3-3c0-1-.3-1.7-1-2.3-.4-.6-1.5-1.2-3-2-1.3-.4-2-1-2.5-1.4-.3-.4-.4-1-.4-1.6 0-.8.3-1.4 1-2 .5-.4 1.4-.7 2.4-.7 1.2 0 2.4.4 3.6 1V8.7c-1-.4-2-.6-3.2-.6-1.4 0-2.5.4-3.4 1-1 .8-1.4 1.8-1.4 3 0 1 .3 1.7 1 2.3.4.6 1.4 1.3 2.8 2 1 .4 2 .8 2.4 1.3.5.4.8 1 .8 1.6 0 2-1.2 2.8-3.4 2.8-.5 0-1.2 0-1.8-.4-.7-.2-1.3-.6-1.8-1v1.6c1 .5 2 .8 3.3.8zM173.6 21.4c-.7.4-1.3.6-1.8.6-.8 0-1.4-.2-1.7-.7-.3-.5-.4-1.2-.4-2.3V9h4V8h-4V4c-.2 0-.3 0-.5.2l-.4.2V8h-3v1h3v10c0 2.7 1 4 3 4 .7 0 1.3 0 2-.4v-1.2zM185.6 15v1.4c0 1.7-.5 3-1.4 4-1 1-2 1.6-3.4 1.6-1 0-1.8-.3-2.4-.8-.5-.6-.8-1.3-.8-2.2 0-1 .3-2 1-2.4.5-.4 1.5-.8 3-1l4-.6zm1 8v-9.5c0-1.8-.4-3.2-1.2-4-.8-1-2-1.5-3.3-1.5-.7 0-1.5.2-2.3.5-1 .3-1.6.7-2 1v1.7c1.3-1.5 3-2.2 4.4-2.2 2.4 0 3.6 1.7 3.6 5l-4.3.6c-3 .6-4.7 2-4.7 4.5 0 1.2.4 2 1 3 1 .6 2 1 3.2 1 1 0 2-.2 2.8-.7.8-.5 1.5-1.3 2-2.3v3h1zM198.6 8.2L197 8c-1 0-2 .3-2.7.8-.7.5-1.3 1.4-1.7 2.5V8h-1v15h1v-7c0-2.2.4-4 1.2-5.2 1-1.2 2-1.8 3-1.8.8 0 1.3.2 1.8.5V8.2zM208.6 21.4c-.7.4-1.3.6-1.8.6-.8 0-1.4-.2-1.7-.7-.3-.5-.4-1.2-.4-2.3V9h4V8h-4V4c-.2 0-.3 0-.5.2l-.4.2V8h-3v1h3v10c0 2.7 1 4 3 4 .7 0 1.3 0 2-.4v-1.2zM212.4 14c.2-1.6.7-2.8 1.7-3.7 1-1 2.2-1.3 3.6-1.3 1.3 0 2.4.4 3.2 1.3.7 1 1 2 1.2 3.7h-9.6zm11.2 1v-.5c0-2-.5-3.6-1.6-4.8-1-1-2.5-1.7-4.4-1.7-2 0-3.8.7-5 2-1.4 1.6-2 3.3-2 5.4 0 2.4.6 4.3 1.8 5.6 1.2 1.3 2.8 2 4.8 2s3.8-.5 5.4-1.4V20c-1.7 1.4-3.5 2-5.3 2-1.8 0-3.2-.6-4.2-1.8-1-1.3-1.4-3-1.4-5.2h12zM233.6 8.2L232 8c-1 0-2 .3-2.7.8-.7.5-1.3 1.4-1.7 2.5V8h-1v15h1v-7c0-2.2.4-4 1.2-5.2 1-1.2 2-1.8 3-1.8.8 0 1.3.2 1.8.5V8.2zM251.6 1.2l-1.4-.2c-1 0-2 .4-2.6 1.2-.7.7-1 2-1 3.4V8h-3v1h3v14h1V9h4V8h-4V5.6c0-2.4.8-3.6 2.5-3.6.8 0 1.3.2 1.6.4V1.2zM263 10.7c1 1 1.6 2.7 1.6 4.8 0 2-.5 3.6-1.6 4.8-1 1-2.5 1.7-4.4 1.7-2 0-3.3-.6-4.4-1.8-1-1-1.6-2.6-1.6-4.6 0-2 .5-3.7 1.6-5 1.2-1 2.6-1.6 4.5-1.6 2 0 3.3.6 4.3 1.7zm.7 10.2c1.3-1.4 2-3.2 2-5.5s-.7-4.2-2-5.5c-1.2-1.3-2.8-2-5-2-2 0-3.8.7-5 2-1.5 1.4-2 3.2-2 5.6 0 2.2.5 4 1.8 5.3 1.2 1.3 3 2 5 2 2.3 0 4-.7 5.2-2zM276.6 8.2L275 8c-1 0-2 .3-2.7.8-.8.5-1.3 1.4-1.7 2.5V8h-1v15h1v-7c0-2.2.4-4 1.2-5.2 1-1.2 2-1.8 3-1.8.7 0 1.3.2 1.8.5V8.2zM16 3.3c-.3 0-.7-.3-1.2-.5-.4 0-.8-.3-1.3-.4L12 2H10c-1.3 0-2.5.2-3.5.5-1 .4-2 1-2.5 1.5-.7.6-1 1.3-1.4 2-.3.8-.5 1.5-.5 2.3 0 .7 0 1.3.3 2l.8 1.4c.4.5.8 1 1.3 1.3l1.6 1 1.5 1c.3 0 .6.4 1 .6l.4.7V18l-.6.5-1 .4H6.4c-.5 0-1 0-1.5-.2-.5 0-1-.2-1.5-.4L2 17.8.8 17 0 21.4l1.2.6 1.5.5 1.7.4h1.8c1 0 2 0 3-.3.8-.2 1.5-.5 2-.8l1.6-1.2 1-1.4c0-.5.3-1 .4-1.4v-1.3c0-.6 0-1.2-.2-1.8 0-.6-.4-1-.8-1.6-.3-.4-.8-1-1.3-1.3l-2-1c-.4-.4-.8-.6-1-1-.5 0-.8-.4-1-.6l-.5-.8-.2-.8c0-.2 0-.4.2-.6 0-.2.3-.4.5-.6l1-.4 1.3-.2c.5 0 1 0 1.4.2.5 0 1 .3 1.3.4l1.2.7 1 .7.8-4.7zM27 8h-3.4l1-5-5 1.3L19 8h-2.3l-.8 3H18L17 16.8v.6c-.2.2-.2.5-.2.7v2.7c.2.5.4 1 .7 1.2.3.3.7.5 1.2.7.5.2 1 .3 1.8.3h1c.3 0 .6 0 1-.2h.8l.6-.3.6-2.7h-.9c-.2.2-.4.2-.6.2h-.4c-.4 0-.7 0-1-.3l-.2-1v-.3-.4l.2-.5V17l1.2-6h3.6l.8-3z"/>
    <path d="M43 8h-5l-4.5 9c-.2.5-.3 1-.5 1.2 0 .4-.2.7-.3 1v-1-1l-1-9.2h-5l3 15-1.3 2c-.4.7-.8 1.2-1.3 1.6-.4.2-1 .4-1.5.4h-1l-.7-.4-.8 3c.4.2 1 .3 1.3.3h1.2c1 0 1.8 0 2.6-.4 1-.3 1.6-.7 2.2-1 .6-.7 1.2-1.2 1.7-2l1.5-2.3L43 8zM49 21.2l.3-1.5-.7.2H48c-.4 0-.7 0-1-.2-.2-.2-.3-.5-.3-1v-1l.4-1.2L50.5 0h-4.7l-.2 1-.4 1.8-.4 2.5L44 8l-.5 2.8-.5 2.5-.4 2-.2.8c0 .4 0 .7-.2 1v1l-.2.7V21s.5.7.8 1l1 .7 1.8.3h1.7l.7-.2c.2 0 .4 0 .6-.2 0-.4.3-1 .4-1.4zM60 13.5c-1 .4-2.3.5-4 .5 0-.4.2-.8.5-1.2l.8-1 1-.6 1.3-.2c.5 0 1 0 1.2.3.2.2.4.4.4.7 0 .7-.5 1.2-1.3 1.5zm5.3-3c-.2-.5-.6-1-1-1.3-.4-.4-1-.6-1.7-1L60 8c-1.3 0-2.5.3-3.6.7-1 .5-2 1.2-3 2-.7 1-1.3 1.8-1.7 3-.4 1-.6 2.2-.6 3.4 0 1 .2 1.7.4 2.4.3.7.7 1.3 1.2 2 .5.4 1.2.8 2 1 .8.4 1.8.6 3 .6H59l1.5-.3c.5 0 1-.3 1.3-.4.4 0 .7-.3 1-.4l.8-3.2c-.4 0-.8.3-1.2.5-.4 0-1 .3-1.3.4L60 20h-1c-.7 0-1.2 0-1.6-.2l-1-.7c-.2 0-.3-.4-.4-.7l-.2-1V17c2 0 3.5-.2 4.8-.4 1.3-.3 2.3-.6 3-1 .8-.5 1.4-1 1.7-1.6.4-.6.6-1.3.6-2 0-.5 0-1-.3-1.5zM77.7 11.2l-.7 3.4-.6 2-.8 1.7c-.3.5-.7 1-1 1.2-.6.3-1 .5-1.6.5-.3 0-.6 0-.8-.2-.3 0-.5-.3-.6-.5l-.4-.8v-1-1.2l.3-1.4.7-1.5c.2-.5.5-1 1-1.3l1.2-1 1.8-.2h.8c.3 0 .5 0 .7.2zM84.5 0H80l-1.6 8.2h-1C77 8 76.6 8 76.2 8c-1.5 0-3 .3-4 .8-1.3.5-2.3 1.2-3.2 2-.8 1-1.4 2-2 3-.3 1.3-.5 2.5-.5 3.7 0 1 0 1.7.3 2.4.2.6.5 1 1 1.6.3.5.8.8 1.4 1 .5.3 1.2.4 2 .4h1.3c.5 0 1-.2 1.3-.4l1-1 1-1V21.7c0 .2 0 .4-.2.6v.6h4.7v-1.2c0-.4 0-1 .2-1.4 0-.5 0-1 .2-1.4 0-.4 0-.8.2-1l3.5-18zM95.7 17.3l-.7 1-1.3.5-2 .2h-2.5l1.2-5H93c1 0 1.6.2 2.2.6.5.4.7 1 .7 1.6 0 .4-.2.8-.3 1zm1-8.6c0 .3-.4.5-.7.7-.3.2-.7.4-1 .4L93 10H91l1.2-4h3.2l1 .5c.2 0 .3.3.4.5l.2.7c0 .4 0 .7-.3 1zm5-4c-.3-.5-.7-1-1.2-1.4-.5-.4-1.2-.7-2-1-.8-.2-1.8-.3-3-.3h-7.3l-4.5 21H92c1.5 0 2.8-.2 4-.5 1-.4 2-.8 2.7-1.4.7-.5 1.3-1.3 1.6-2 .4-1 .6-1.8.6-2.8l-.3-1.6c-.2-.4-.4-1-.8-1.3l-1.3-1c-.5-.2-1-.4-1.8-.5.8-.2 1.5-.5 2-.8l1.7-1 1-1.6c0-.5.3-1 .3-1.8s-.2-1.2-.4-1.8zM109.6 21.2l.3-1.5-.8.2h-.7c-.3 0-.6 0-.8-.2-.3-.2-.4-.5-.4-1v-1l.4-1.2L111 0h-4.7l-.2 1-.3 1.8-.5 2.5-.6 2.8-.5 2.8c0 1-.3 1.7-.4 2.5l-.4 2-.2.8c0 .4 0 .7-.2 1v1l-.2.7V21l.8 1c.3.3.7.6 1.2.7.4.2 1 .3 1.6.3h1.7l.6-.2c.2 0 .4 0 .6-.2 0-.4.3-1 .4-1.4zM122.2 16c-.2.8-.4 1.5-.7 2-.4.7-.8 1-1.3 1.5-.4.3-1 .5-1.6.5-.7 0-1.2-.2-1.6-.8-.5-.5-.7-1.2-.7-2s0-1.6.3-2.3c.2-.8.4-1.4.8-2 .3-.6.7-1 1.2-1.4.5-.4 1-.6 1.6-.6.4 0 .7 0 1 .2l.7.6.3 1 .2 1c0 1 0 1.6-.3 2.3zm4.5-4.4c-.3-.8-.7-1.4-1.3-2-.5-.5-1.2-1-2-1.2-.8-.2-1.8-.4-2.8-.4-1 0-2 0-2.8.4-1 .2-1.7.6-2.3 1-.7.4-1.3 1-1.8 1.5-.4.5-.8 1-1 1.8-.5.7-.7 1.3-.8 2-.3.8-.3 1.5-.3 2.2 0 .8 0 1.6.4 2.3.3.8.7 1.4 1.3 2 .5.5 1.2 1 2 1.3.8.3 1.8.4 3 .4 1 0 2 0 3-.4.7-.2 1.5-.6 2.2-1 .6-.5 1.2-1 1.6-1.6.6-.6 1-1.2 1.3-2 .3-.5.5-1.2.6-2v-2c0-1 0-1.7-.3-2.4zM139.3 11l-.7 3.7c0 .4-.2.8-.4 1.2 0 .3-.2.7-.4 1 0 .5-.3.8-.6 1.2l-.7 1-1 .6-1 .2c-.2 0-.5 0-.7-.2-.3 0-.5-.3-.6-.5l-.4-.8v-1c0-1 0-1.8.3-2.6l1-2c.6-.7 1-1.2 1.7-1.5.6-.3 1.2-.5 2-.5h1.6zm5.2-2.3l-1.4-.2-1.5-.3h-1.8C139 8 138.5 8 138 8c-1.2 0-2.2 0-3 .4-1 .2-2 .6-2.6 1l-2 1.6c-.4.6-1 1.3-1.2 2l-1 2.2v2.4c0 .8 0 1.5.2 2.2.2.7.4 1.2.8 1.7s1 .8 1.5 1c.5.4 1.2.5 2 .5.5 0 1 0 1.5-.2l1.2-.6 1-1c.3-.2.6-.6.8-1l-.2 1.3c0 .8-.4 1.5-.6 2.2l-1 1.8c-.5.5-1 1-1.6 1-.5.4-1.2.5-2 .5s-1.5-.2-2.3-.6l-2-1.6-.8 4 2.2 1 2.6.2c1.7 0 3-.2 4.3-.6 1-.5 2-1 3-1.8.6-.8 1.2-1.7 1.7-2.8.5-1 .8-2.2 1-3.5l2.8-12.6z"/>
  </g>
</svg>